# Blender v2.61 (sub 0) OBJ File: 'arrow.blend'
# www.blender.org
o Arrow_Cube
v -0.700000 -0.600000 -0.000000
v -0.700000 0.600000 -0.000000
v 0.700000 -0.600000 -0.000000
v 0.700000 0.600000 -0.000000
v -0.700000 0.600000 -2.321218
v -0.700000 0.600000 2.321217
v -0.700000 -0.600000 -2.321218
v -0.700000 -0.600000 2.321217
v 0.700000 -0.600000 -2.321217
v 0.700000 -0.600000 2.321217
v 0.700001 0.600000 -2.321217
v 0.700000 0.600000 2.321216
v 0.700001 0.000000 -4.000000
v 0.700000 0.000000 3.999999
v -0.700000 0.000000 -4.000000
v -0.700000 0.000000 4.000000
v -0.700000 1.500000 -2.000001
v -0.700000 1.500000 2.000000
v 0.700000 1.500000 -2.000000
v 0.700000 1.500000 1.999999
v -0.700000 -1.500000 -2.000000
v -0.700000 -1.500000 2.000000
v 0.700000 -1.500000 -2.000000
v 0.700000 -1.500000 2.000000
vt 0.651516 0.212783
vt 0.438945 0.130586
vt 0.641656 0.185675
vt 0.355016 0.381600
vt 0.950778 0.598989
vt 0.371723 0.429848
vt 0.296604 0.196405
vt 0.682512 0.419729
vt 0.000000 0.598989
vt 0.344936 0.894648
vt 0.000000 0.894648
vt 0.344936 0.598989
vt 0.617227 0.161619
vt 0.579701 0.177257
vt 0.334438 0.000000
vt 0.619182 0.598989
vt 0.344724 0.418024
vt 0.362498 0.417057
vt 0.000000 0.000000
vt 0.540321 0.471337
vt 0.826000 0.246864
vt 0.155265 0.350419
vt 1.000000 0.300418
vt 0.000000 0.300418
vt 0.614211 0.172736
vt 0.340358 0.399774
vt 0.629636 0.213470
vt 0.332676 0.417995
vt 0.633661 0.188156
vt 0.351816 0.421734
vt 0.660150 0.174853
vt 0.364613 0.390718
vn -1.000000 0.000000 -0.000000
vn 0.000000 0.000000 -1.000000
vn 1.000000 -0.000000 0.000000
vn 0.000000 1.000000 0.000000
vn 0.000000 -1.000000 -0.000000
vn 0.000000 -0.800000 -0.600000
vn 0.000000 -0.800000 0.600000
vn -0.000000 0.336140 0.941812
vn 0.000000 0.336140 -0.941812
vn 0.000001 0.800000 -0.600000
vn 0.000000 0.800000 0.600000
vn 0.000000 0.800000 -0.600000
vn -0.000001 -0.336140 0.941812
vn -0.000001 -0.336140 -0.941812
s off
f 7/1/1 1/2/1 5/3/1
f 6/4/1 1/5/1 8/6/1
f 5/3/1 1/2/1 2/7/1
f 2/8/1 1/5/1 6/4/1
f 3/9/2 2/10/2 4/11/2
f 3/9/2 1/12/2 2/10/2
f 9/13/3 11/14/3 3/15/3
f 3/16/3 12/17/3 10/18/3
f 11/14/3 4/19/3 3/15/3
f 3/16/3 4/20/3 12/17/3
f 5/3/4 2/7/4 11/14/4
f 12/17/4 2/8/4 6/4/4
f 2/7/4 4/19/4 11/14/4
f 12/17/4 4/20/4 2/8/4
f 7/1/5 9/13/5 3/15/5
f 3/16/5 10/18/5 8/6/5
f 3/15/5 1/2/5 7/1/5
f 8/6/5 1/5/5 3/16/5
f 11/14/3 9/13/3 13/21/3
f 14/22/3 10/18/3 12/17/3
f 7/1/1 5/3/1 15/23/1
f 16/24/1 6/4/1 8/6/1
f 11/14/3 13/21/3 19/25/3
f 14/22/3 12/17/3 20/26/3
f 5/3/1 17/27/1 15/23/1
f 18/28/1 6/4/1 16/24/1
f 9/13/3 23/29/3 13/21/3
f 24/30/3 10/18/3 14/22/3
f 7/1/1 15/23/1 21/31/1
f 22/32/1 16/24/1 8/6/1
f 13/21/6 21/31/6 15/23/6
f 22/32/7 14/22/7 16/24/7
f 13/21/6 23/29/6 21/31/6
f 24/30/7 14/22/7 22/32/7
f 7/1/8 23/29/8 9/13/8
f 24/30/9 8/6/9 10/18/9
f 7/1/8 21/31/8 23/29/8
f 22/32/9 8/6/9 24/30/9
f 13/21/10 17/27/10 19/25/10
f 18/28/11 14/22/11 20/26/11
f 13/21/12 15/23/12 17/27/12
f 16/24/11 14/22/11 18/28/11
f 11/14/13 17/27/13 5/3/13
f 18/28/14 12/17/14 6/4/14
f 11/14/13 19/25/13 17/27/13
f 20/26/14 12/17/14 18/28/14
